2014004_C4_02_grf
version=1
nRows=37
nColumns=19
inDegrees=no
endheader
time	ground_force_1_vx	ground_force_1_vy	ground_force_1_vz	ground_force_1_px	ground_force_1_py	ground_force_1_pz	ground_force_1_mx	ground_force_1_my	ground_force_1_mz	ground_force_2_vx	ground_force_2_vy	ground_force_2_vz	ground_force_2_px	ground_force_2_py	ground_force_2_pz	ground_force_2_mx	ground_force_2_my	ground_force_2_mz
      0.43000000	      0.00000000	      0.00000000	      0.00000000	      0.00000000	      0.00000000	      0.00000000	      0.00000000	      0.00000000	      0.00000000	    -20.04553191	    624.73183870	     27.62525082	     -0.71785260	     -0.00200000	      0.18895773	      0.00000000	     -1.34751825	     -0.00000000
      0.43100000	      0.00000000	      0.00000000	      0.00000000	      0.00000000	      0.00000000	      0.00000000	      0.00000000	      0.00000000	      0.00000000	    -19.64579988	    625.19437075	     27.68777162	     -0.71759942	     -0.00200000	      0.18895749	      0.00000000	     -1.35492165	      0.00000000
      0.43200000	      0.00000000	      0.00000000	      0.00000000	      0.00000000	      0.00000000	      0.00000000	      0.00000000	      0.00000000	      0.00000000	    -19.24133115	    625.67466497	     27.74756849	     -0.71734870	     -0.00200000	      0.18895767	      0.00000000	     -1.36265605	     -0.00000000
      0.43300000	      0.00000000	      0.00000000	      0.00000000	      0.00000000	      0.00000000	      0.00000000	      0.00000000	      0.00000000	      0.00000000	    -18.83082651	    626.17745996	     27.80391276	     -0.71710108	     -0.00200000	      0.18895843	      0.00000000	     -1.37081606	      0.00000000
      0.43400000	      0.00000000	      0.00000000	      0.00000000	      0.00000000	      0.00000000	      0.00000000	      0.00000000	      0.00000000	      0.00000000	    -18.41541007	    626.69837475	     27.85746455	     -0.71685593	     -0.00200000	      0.18895965	      0.00000000	     -1.37932419	      0.00000000
      0.43500000	      0.00000000	      0.00000000	      0.00000000	      0.00000000	      0.00000000	      0.00000000	      0.00000000	      0.00000000	      0.00000000	    -17.99375750	    627.24217772	     27.90750116	     -0.71661385	     -0.00200000	      0.18896148	      0.00000000	     -1.38827476	     -0.00000000
      0.43600000	      0.00000000	      0.00000000	      0.00000000	      0.00000000	      0.00000000	      0.00000000	      0.00000000	      0.00000000	      0.00000000	    -17.56704040	    627.80433893	     27.95471549	     -0.71637422	     -0.00200000	      0.18896380	      0.00000000	     -1.39758412	     -0.00000000
      0.43700000	      0.00000000	      0.00000000	      0.00000000	      0.00000000	      0.00000000	      0.00000000	      0.00000000	      0.00000000	      0.00000000	    -17.13391859	    628.38968635	     27.99839526	     -0.71613763	     -0.00200000	      0.18896676	      0.00000000	     -1.40735190	      0.00000000
      0.43800000	      0.00000000	      0.00000000	      0.00000000	      0.00000000	      0.00000000	      0.00000000	      0.00000000	      0.00000000	      0.00000000	    -16.69562608	    628.99363041	     28.03925276	     -0.71590346	     -0.00200000	      0.18897026	      0.00000000	     -1.41749453	     -0.00000000
      0.43900000	      0.00000000	      0.00000000	      0.00000000	      0.00000000	      0.00000000	      0.00000000	      0.00000000	      0.00000000	      0.00000000	    -16.25082549	    629.62082028	     28.07660699	     -0.71567227	     -0.00200000	      0.18897442	      0.00000000	     -1.42811459	      0.00000000
      0.44000000	      0.00000000	      0.00000000	      0.00000000	      0.00000000	      0.00000000	      0.00000000	      0.00000000	      0.00000000	      0.00000000	    -15.80078155	    630.26654720	     28.11118662	     -0.71544343	     -0.00200000	      0.18897912	      0.00000000	     -1.43912300	     -0.00000000
      0.44100000	      0.00000000	      0.00000000	      0.00000000	      0.00000000	      0.00000000	      0.00000000	      0.00000000	      0.00000000	      0.00000000	    -15.34414757	    630.93554974	     28.14235985	     -0.71521752	     -0.00200000	      0.18898452	      0.00000000	     -1.45062491	      0.00000000
      0.44200000	      0.00000000	      0.00000000	      0.00000000	      0.00000000	      0.00000000	      0.00000000	      0.00000000	      0.00000000	      0.00000000	    -14.88221996	    631.62314892	     28.17086577	     -0.71499392	     -0.00200000	      0.18899047	      0.00000000	     -1.46252875	     -0.00000000
      0.44300000	      0.00000000	      0.00000000	      0.00000000	      0.00000000	      0.00000000	      0.00000000	      0.00000000	      0.00000000	      0.00000000	    -14.41366179	    632.33390450	     28.19613963	     -0.71477319	     -0.00200000	      0.18899714	      0.00000000	     -1.47494247	      0.00000000
      0.44400000	      0.00000000	      0.00000000	      0.00000000	      0.00000000	      0.00000000	      0.00000000	      0.00000000	      0.00000000	      0.00000000	    -13.93980626	    633.06313753	     28.21892500	     -0.71455473	     -0.00200000	      0.18900439	      0.00000000	     -1.48777114	     -0.00000000
      0.44500000	      0.00000000	      0.00000000	      0.00000000	      0.00000000	      0.00000000	      0.00000000	      0.00000000	      0.00000000	      0.00000000	    -13.45935883	    633.81519914	     28.23873162	     -0.71433903	     -0.00200000	      0.18901236	      0.00000000	     -1.50112845	     -0.00000000
      0.44600000	      0.00000000	      0.00000000	      0.00000000	      0.00000000	      0.00000000	      0.00000000	      0.00000000	      0.00000000	      0.00000000	    -12.97367457	    634.58532095	     28.25626731	     -0.71412550	     -0.00200000	      0.18902091	      0.00000000	     -1.51491782	     -0.00000000
      0.44700000	      0.00000000	      0.00000000	      0.00000000	      0.00000000	      0.00000000	      0.00000000	      0.00000000	      0.00000000	      0.00000000	    -12.48149388	    635.37764549	     28.27111930	     -0.71391458	     -0.00200000	      0.18903015	     -0.00000000	     -1.52925808	      0.00000000
      0.44800000	      0.00000000	      0.00000000	      0.00000000	      0.00000000	      0.00000000	      0.00000000	      0.00000000	      0.00000000	      0.00000000	    -11.98415738	    636.18743420	     28.28395963	     -0.71370568	     -0.00200000	      0.18903992	     -0.00000000	     -1.54404618	      0.00000000
      0.44900000	      0.00000000	      0.00000000	      0.00000000	      0.00000000	      0.00000000	      0.00000000	      0.00000000	      0.00000000	      0.00000000	    -11.48043619	    637.01865077	     28.29445601	     -0.71349920	     -0.00200000	      0.18905034	     -0.00000000	     -1.55940219	     -0.00000000
      0.45000000	      0.00000000	      0.00000000	      0.00000000	      0.00000000	      0.00000000	      0.00000000	      0.00000000	      0.00000000	      0.00000000	    -10.97166166	    637.86661625	     28.30322087	     -0.71329457	     -0.00200000	      0.18906124	      0.00000000	     -1.57521766	      0.00000000
      0.45100000	      0.00000000	      0.00000000	      0.00000000	      0.00000000	      0.00000000	      0.00000000	      0.00000000	      0.00000000	      0.00000000	    -10.45663282	    638.73517513	     28.31000239	     -0.71309216	     -0.00200000	      0.18907273	      0.00000000	     -1.59161339	      0.00000000
      0.45200000	      0.00000000	      0.00000000	      0.00000000	      0.00000000	      0.00000000	      0.00000000	      0.00000000	      0.00000000	      0.00000000	     -9.93665494	    639.61988688	     28.31535041	     -0.71289143	     -0.00200000	      0.18908465	      0.00000000	     -1.60847643	      0.00000000
      0.45300000	      0.00000000	      0.00000000	      0.00000000	      0.00000000	      0.00000000	      0.00000000	      0.00000000	      0.00000000	      0.00000000	     -9.41056944	    640.52435756	     28.31908166	     -0.71269271	     -0.00200000	      0.18909708	      0.00000000	     -1.62592826	      0.00000000
      0.45400000	      0.00000000	      0.00000000	      0.00000000	      0.00000000	      0.00000000	      0.00000000	      0.00000000	      0.00000000	      0.00000000	     -8.87966901	    641.44432545	     28.32167149	     -0.71249551	     -0.00200000	      0.18910988	     -0.00000000	     -1.64385407	     -0.00000000
      0.45500000	      0.00000000	      0.00000000	      0.00000000	      0.00000000	      0.00000000	      0.00000000	      0.00000000	      0.00000000	      0.00000000	     -8.34283931	    642.38324761	     28.32303047	     -0.71230011	     -0.00200000	      0.18912308	     -0.00000000	     -1.66237368	     -0.00000000
      0.45600000	      0.00000000	      0.00000000	      0.00000000	      0.00000000	      0.00000000	      0.00000000	      0.00000000	      0.00000000	      0.00000000	     -7.80134555	    643.33707094	     28.32356989	     -0.71210606	     -0.00200000	      0.18913659	      0.00000000	     -1.68136956	      0.00000000
      0.45700000	      0.00000000	      0.00000000	      0.00000000	      0.00000000	      0.00000000	      0.00000000	      0.00000000	      0.00000000	      0.00000000	     -7.25413044	    644.30910349	     28.32330614	     -0.71191360	     -0.00200000	      0.18915042	      0.00000000	     -1.70096137	      0.00000000
      0.45800000	      0.00000000	      0.00000000	      0.00000000	      0.00000000	      0.00000000	      0.00000000	      0.00000000	      0.00000000	      0.00000000	     -6.70243101	    645.29538155	     28.32258642	     -0.71172232	     -0.00200000	      0.18916447	      0.00000000	     -1.72102807	      0.00000000
      0.45900000	      0.00000000	      0.00000000	      0.00000000	      0.00000000	      0.00000000	      0.00000000	      0.00000000	      0.00000000	      0.00000000	     -6.14525122	    646.29918337	     28.32154334	     -0.71153246	     -0.00200000	      0.18917879	      0.00000000	     -1.74168415	      0.00000000
      0.46000000	      0.00000000	      0.00000000	      0.00000000	      0.00000000	      0.00000000	      0.00000000	      0.00000000	      0.00000000	      0.00000000	     -5.58379013	    647.31669426	     28.32043767	     -0.71134364	     -0.00200000	      0.18919327	      0.00000000	     -1.76280704	      0.00000000
      0.46100000	      0.00000000	      0.00000000	      0.00000000	      0.00000000	      0.00000000	      0.00000000	      0.00000000	      0.00000000	      0.00000000	     -5.01711201	    648.35089445	     28.31951231	     -0.71115604	     -0.00200000	      0.18920794	      0.00000000	     -1.78450687	      0.00000000
      0.46200000	      0.00000000	      0.00000000	      0.00000000	      0.00000000	      0.00000000	      0.00000000	      0.00000000	      0.00000000	      0.00000000	     -4.44637658	    649.39820766	     28.31893861	     -0.71096935	     -0.00200000	      0.18922273	      0.00000000	     -1.80666137	      0.00000000
      0.46300000	      0.00000000	      0.00000000	      0.00000000	      0.00000000	      0.00000000	      0.00000000	      0.00000000	      0.00000000	      0.00000000	     -3.87073087	    650.46134591	     28.31906825	     -0.71078368	     -0.00200000	      0.18923761	      0.00000000	     -1.82937518	      0.00000000
      0.46400000	      0.00000000	      0.00000000	      0.00000000	      0.00000000	      0.00000000	      0.00000000	      0.00000000	      0.00000000	      0.00000000	     -3.29129887	    651.53682232	     28.31996679	     -0.71059873	     -0.00200000	      0.18925251	     -0.00000000	     -1.85252819	     -0.00000000
      0.46500000	      0.00000000	      0.00000000	      0.00000000	      0.00000000	      0.00000000	      0.00000000	      0.00000000	      0.00000000	      0.00000000	     -2.70732667	    652.62717009	     28.32206935	     -0.71041458	     -0.00200000	      0.18926740	     -0.00000000	     -1.87621856	     -0.00000000
      0.46600000	      0.00000000	      0.00000000	      0.00000000	      0.00000000	      0.00000000	      0.00000000	      0.00000000	      0.00000000	      0.00000000	     -2.11988506	    653.72890234	     28.32532525	     -0.71023096	     -0.00200000	      0.18928222	     -0.00000000	     -1.90032881	     -0.00000000
